<svg id="_0204_bitcoin" xmlns="http://www.w3.org/2000/svg" viewBox="0 0 500 500" data-imageid="bitcoin-75" imageName="Bitcoin" class="illustrations_image" style="width: 188px;"><defs><style>.cls-1_bitcoin-75{fill:#fff;}.cls-2_bitcoin-75{fill:#f4a28c;}.cls-3_bitcoin-75{opacity:.46;}.cls-3_bitcoin-75,.cls-4_bitcoin-75,.cls-5_bitcoin-75,.cls-6_bitcoin-75{fill:none;}.cls-7_bitcoin-75{fill:#e6e6e6;}.cls-4_bitcoin-75{opacity:.03;}.cls-5_bitcoin-75{opacity:.08;}.cls-6_bitcoin-75{opacity:.3;}.cls-8_bitcoin-75{fill:#24285b;}.cls-9_bitcoin-75{fill:#000001;}.cls-10_bitcoin-75{fill:#ffd200;}.cls-11_bitcoin-75{fill:#68e1fd;}</style></defs><g id="bg_bitcoin-75"><g class="cls-6_bitcoin-75"><path class="cls-7_bitcoin-75" d="m117.39,82.41c-43.05,24.91-77.82,76.37-84.13,142.39-5.32,55.63,8.13,117.03,85.93,134.24,151.4,33.49,293.11,42.66,328.93-49.39s9.88-217.27-81.8-255.27c-56.88-23.58-160.8-22.98-248.93,28.03Z"/></g><g class="cls-4_bitcoin-75"><ellipse class="cls-9_bitcoin-75" cx="250" cy="436.97" rx="239.13" ry="23.66"/></g></g><g id="person_crate_bitcoin-75"><path class="cls-2_bitcoin-75" d="m290.08,194.44c-6.37-22.67,17.21-41.76,38.25-31.19,17.87,8.98,41.8,28.96,57.89,73.35,28.62,79-154.44,46.23-154.44,46.23,0,0-6.65,5.21-18.87,4.62-12.22-.59-8.45-21.79,17.25-20.17,25.7,1.62,102.16-14.6,102.16-14.6,0,0-34.14-29.42-42.24-58.25Z"/><g class="cls-5_bitcoin-75"><path class="cls-9_bitcoin-75" d="m290.08,194.44c-6.37-22.67,17.21-41.76,38.25-31.19,17.87,8.98,41.8,28.96,57.89,73.35,28.62,79-154.44,46.23-154.44,46.23,0,0-6.65,5.21-18.87,4.62-12.22-.59-8.45-21.79,17.25-20.17,25.7,1.62,102.16-14.6,102.16-14.6,0,0-34.14-29.42-42.24-58.25Z"/></g><path class="cls-10_bitcoin-75" d="m107.78,279.84l-3.19,15.41c-1.44,6.98,16.84,16.67,40.85,21.63,24,4.96,44.64,3.33,46.08-3.66l3.19-15.41-86.93-17.98Z"/><g class="cls-3_bitcoin-75"><path class="cls-1_bitcoin-75" d="m107.78,279.84l-3.19,15.41c-1.44,6.98,16.84,16.67,40.85,21.63,24,4.96,44.64,3.33,46.08-3.66l3.19-15.41-86.93-17.98Z"/></g><ellipse class="cls-10_bitcoin-75" cx="151.25" cy="288.83" rx="12.91" ry="44.38" transform="translate(-162.23 378.44) rotate(-78.32)"/><path class="cls-10_bitcoin-75" d="m111.62,261.27l-3.19,15.41c-1.44,6.98,16.84,16.67,40.85,21.63,24,4.96,44.64,3.33,46.08-3.66l3.19-15.41-86.93-17.98Z"/><g class="cls-3_bitcoin-75"><path class="cls-1_bitcoin-75" d="m111.62,261.27l-3.19,15.41c-1.44,6.98,16.84,16.67,40.85,21.63,24,4.96,44.64,3.33,46.08-3.66l3.19-15.41-86.93-17.98Z"/></g><ellipse class="cls-10_bitcoin-75" cx="155.09" cy="270.25" rx="12.91" ry="44.38" transform="translate(-140.98 367.39) rotate(-78.32)"/><path class="cls-10_bitcoin-75" d="m118.59,243.51l-3.19,15.41c-1.44,6.98,16.84,16.67,40.85,21.63,24,4.96,44.64,3.33,46.08-3.66l3.19-15.41-86.93-17.98Z"/><g class="cls-3_bitcoin-75"><path class="cls-1_bitcoin-75" d="m118.59,243.51l-3.19,15.41c-1.44,6.98,16.84,16.67,40.85,21.63,24,4.96,44.64,3.33,46.08-3.66l3.19-15.41-86.93-17.98Z"/></g><ellipse class="cls-10_bitcoin-75" cx="162.06" cy="252.49" rx="12.91" ry="44.38" transform="translate(-118.03 360.06) rotate(-78.32)"/><path class="cls-10_bitcoin-75" d="m119.27,224.28l-3.19,15.41c-1.44,6.98,16.84,16.67,40.85,21.63,24,4.96,44.64,3.33,46.08-3.66l3.19-15.41-86.93-17.98Z"/><g class="cls-3_bitcoin-75"><path class="cls-1_bitcoin-75" d="m119.27,224.28l-3.19,15.41c-1.44,6.98,16.84,16.67,40.85,21.63,24,4.96,44.64,3.33,46.08-3.66l3.19-15.41-86.93-17.98Z"/></g><ellipse class="cls-10_bitcoin-75" cx="162.73" cy="233.27" rx="12.91" ry="44.38" transform="translate(-98.66 345.39) rotate(-78.32)"/><path class="cls-2_bitcoin-75" d="m251.25,128.4s-.67,9.73,1.08,16.15c.71,2.61,3.44,4.17,6.04,3.42,3.22-.93,7.31-3.12,8.3-8.29l2.76-8.56s1.54-5.43-4.03-9.28c-5.57-3.85-14.05.62-14.16,6.56Z"/><polygon class="cls-2_bitcoin-75" points="263.49 132.72 285.47 155.89 271.84 167.09 261.32 145.73 263.49 132.72"/><path class="cls-8_bitcoin-75" d="m270.82,138.64h0c.01.42-.27.79-.68.9-1.47.39-4.93.83-7.34-2.72-3.13-4.62-.16-8.92-.16-8.92-4.14.84-7.27.91-8.97.85-1.02-.03-2.03-.18-2.98-.54l-2.64-7.27s-4.15-7.24.13-8.9c4.28-1.67,6.41,3.2,9.82-.43s4.17-4.97,7.84-3.13c3.67,1.84-.37,4.8,5.54,4.63,5.91-.17,6.1,2.26,6.22,4.95.03.67-.4,1.56-1.07,2.5-3.74,5.32-5.91,11.58-5.71,18.08Z"/><path class="cls-2_bitcoin-75" d="m261.75,136.55s0-3.75,2.83-3.52c2.82.24,2.85,5.66-.97,6.24l-1.86-2.72Z"/><path class="cls-2_bitcoin-75" d="m251.14,134.55l-2.65,3.8c-.65.94-.11,2.24,1.02,2.43l3.74.63-2.11-6.87Z"/><g class="cls-5_bitcoin-75"><path class="cls-9_bitcoin-75" d="m126.44,238.34s14.79,4.92,10.87,18.82c-3.92,13.9-19.46,14.27-19.46,14.27l8.6-33.09Z"/></g><path class="cls-10_bitcoin-75" d="m60.79,296.5l12.96,8.92c5.87,4.04,21.9-9.05,35.8-29.24,13.9-20.19,20.4-39.84,14.53-43.88l-12.96-8.92-50.32,73.13Z"/><g class="cls-3_bitcoin-75"><path class="cls-1_bitcoin-75" d="m60.79,296.5l12.96,8.92c5.87,4.04,21.9-9.05,35.8-29.24,13.9-20.19,20.4-39.84,14.53-43.88l-12.96-8.92-50.32,73.13Z"/></g><ellipse class="cls-10_bitcoin-75" cx="85.96" cy="259.94" rx="44.38" ry="12.91" transform="translate(-176.91 183.38) rotate(-55.46)"/><circle class="cls-10_bitcoin-75" cx="80.46" cy="302.91" r="41.56"/><g class="cls-3_bitcoin-75"><circle class="cls-1_bitcoin-75" cx="80.46" cy="302.91" r="41.56"/></g><circle class="cls-10_bitcoin-75" cx="79.21" cy="290.29" r="41.56"/><path class="cls-1_bitcoin-75" d="m90.4,284.54c2.53-1.92,3.58-5.21,2.65-8.24-1.29-4.7-7.24-5.72-11.79-5.49l-.98-7.19-4.43.61.97,7.13-2.98.41-.97-7.13-4.43.61.97,7.13-8.93,1.22.63,4.59,3.33-.45c1.49-.2,2.28.14,2.44,1.34l2.7,19.74c.22,1.65-.53,2.27-1.42,2.39l-3.39.46.64,4.69,8.62-1.18.99,7.29,4.47-.61-.99-7.29,2.98-.41.99,7.29,4.34-.59-.99-7.29.95-.13c9.12-1.25,11.55-6.13,10.72-12.21-.56-3.58-3.47-6.32-7.08-6.68Zm-15.89-7.9l3.17-.43c2.22-.3,6.64-.52,7.13,3.09.47,2.34-.95,4.63-3.25,5.25l-5.86.8-1.19-8.71Zm8.02,22.14v-.03s-4.91.67-4.91.67l-1.3-9.5,5.7-.78c1.33-.18,6.4-.42,6.88,3.13s-1.62,5.87-6.37,6.52Z"/><g class="cls-5_bitcoin-75"><path class="cls-9_bitcoin-75" d="m127.63,257.2s-25.9-1.35-39.05,17.96c-12.86,18.9-11.37,47.22-11.37,47.22l45.36-6.96,5.05-58.21Z"/></g><circle class="cls-10_bitcoin-75" cx="138.62" cy="305.14" r="41.56"/><g class="cls-3_bitcoin-75"><circle class="cls-1_bitcoin-75" cx="138.62" cy="305.14" r="41.56"/></g><circle class="cls-10_bitcoin-75" cx="142.18" cy="292.97" r="41.56"/><path class="cls-1_bitcoin-75" d="m154.71,291.82c3.06-.83,5.27-3.49,5.54-6.65.56-4.84-4.57-8.01-8.88-9.5l1.78-7.04-4.34-1.1-1.76,6.97-2.91-.74,1.76-6.97-4.34-1.1-1.76,6.97-8.74-2.21-1.14,4.49,3.25.82c1.46.37,2.06.98,1.76,2.16l-4.88,19.31c-.41,1.61-1.34,1.9-2.21,1.68l-3.32-.84-1.16,4.59,8.43,2.13-1.8,7.13,4.37,1.1,1.8-7.13,2.91.74-1.8,7.13,4.25,1.07,1.8-7.13.93.24c8.93,2.26,13.01-1.36,14.51-7.31.82-3.53-.85-7.16-4.06-8.84Zm-11.78-13.27l3.1.78c2.17.55,6.35,2,5.46,5.54-.43,2.34-2.62,3.94-4.98,3.65l-5.73-1.45,2.15-8.52Zm-.84,23.53v-.03s-4.8-1.21-4.8-1.21l2.35-9.3,5.58,1.41c1.3.33,6.09,2,5.21,5.47-.88,3.47-3.7,4.84-8.35,3.66Z"/><polygon class="cls-8_bitcoin-75" points="26.49 319.93 197.65 307.17 192.4 354.6 79.32 398.87 26.49 319.93"/><circle class="cls-8_bitcoin-75" cx="49.56" cy="412.18" r="30.94"/><circle class="cls-11_bitcoin-75 targetColor" cx="49.56" cy="412.18" r="15.12" style="fill: rgb(104, 225, 253);"/><g class="cls-5_bitcoin-75"><circle class="cls-9_bitcoin-75" cx="49.56" cy="412.18" r="15.12"/></g><path class="cls-11_bitcoin-75 targetColor" d="m49.39,414.9c-1.03-.06-1.97-.71-2.38-1.73-.55-1.4.14-2.99,1.54-3.54l148.85-58.49,11.24-65.17c.19-1.09,1.02-1.96,2.1-2.2l38.65-8.61c1.48-.33,2.93.6,3.26,2.07.33,1.47-.6,2.93-2.07,3.26l-36.86,8.22-11.19,64.88c-.16.94-.8,1.73-1.69,2.08l-150.28,59.05c-.38.15-.78.21-1.17.18Z" style="fill: rgb(104, 225, 253);"/><path class="cls-11_bitcoin-75 targetColor" d="m162.66,436.23c-4.58-.29-8.85-2.84-11.23-6.84l-27.35-46.02c-.77-1.3-.34-2.97.95-3.75,1.3-.77,2.97-.34,3.75.95l27.35,46.02c1.68,2.83,4.77,4.43,8.05,4.17l3.18-.25c4.04-.32,7.33-3.47,7.83-7.49l8.06-64.78c.19-1.5,1.56-2.56,3.05-2.37,1.5.19,2.56,1.55,2.37,3.05l-8.06,64.78c-.82,6.58-6.21,11.74-12.82,12.26l-3.18.25c-.66.05-1.31.06-1.96.02Z" style="fill: rgb(104, 225, 253);"/><path class="cls-11_bitcoin-75 targetColor" d="m271.84,167.09l13.64-11.2s35.3-11.29,66.18,10.75c30.88,22.05,41.74,116.57,41.74,116.57l-59.18,18.03s-15.22-24.94-36.46-36.1c-21.24-11.16-57.15-36.22-25.92-98.06Z" style="fill: rgb(104, 225, 253);"/><g class="cls-5_bitcoin-75"><path class="cls-9_bitcoin-75" d="m296.63,181.36s-16.52,27.06,4.89,56.13c21.41,29.07,24.42,52.31,24.42,52.31l8.27,11.45,59.18-18.03-1.36-11.26-58.71-82.68-33.43-7.91h-3.28Z"/></g><path class="cls-2_bitcoin-75" d="m300.09,195.57c-6.37-22.67,17.21-41.76,38.25-31.19,17.87,8.98,41.8,28.96,57.89,73.35,28.62,79-154.44,46.23-154.44,46.23,0,0-6.65,5.21-18.87,4.62-12.22-.59-8.45-21.79,17.25-20.17,25.7,1.62,102.16-14.6,102.16-14.6,0,0-34.14-29.42-42.24-58.25Z"/><path class="cls-11_bitcoin-75 targetColor" d="m326.67,243.23l58.92-29.58s-29.13-72.38-75.24-53.29c-38.55,15.95,16.32,82.87,16.32,82.87Z" style="fill: rgb(104, 225, 253);"/><path class="cls-11_bitcoin-75 targetColor" d="m278,418.39s-6.45,4.03-11.88.46c-5.42-3.57-10.67.35-7.11,5.25,3.55,4.89,19.97,8.3,19.97,8.3l6.91-9.64-7.89-4.36Z" style="fill: rgb(104, 225, 253);"/><path class="cls-11_bitcoin-75 targetColor" d="m460.7,362.98s7.46,1.53,8.92,7.85c1.47,6.33,7.97,7.1,8.77,1.11.8-6-8.74-19.78-8.74-19.78l-11.65,2.22,2.7,8.6Z" style="fill: rgb(104, 225, 253);"/><g class="cls-3_bitcoin-75"><path class="cls-1_bitcoin-75" d="m326.67,243.23l58.92-29.58s-29.13-72.38-75.24-53.29c-38.55,15.95,16.32,82.87,16.32,82.87Z"/></g><path class="cls-8_bitcoin-75" d="m334.21,301.25l-62.16,116.71,15.83,6.88s47.87-76.78,81.38-96.97c33.51-20.19,24.13-44.65,24.13-44.65l-59.18,18.03Z"/><path class="cls-8_bitcoin-75" d="m360.81,313.89l20.18,38.02c7.46,14.06,22.87,22,38.64,19.92l41.61-5.48-3.22-15.98-31.39-1.12c-10.92-.39-20.27-7.96-22.93-18.56l-9.1-36.31-33.8,19.49Z"/><g class="cls-5_bitcoin-75"><polygon class="cls-9_bitcoin-75" points="330.51 241.3 385.6 213.65 392.04 227.13 336.39 248.3 330.51 241.3"/></g></g></svg>